<?xml version="1.0" encoding="UTF-8"?>
<svg version="1.1" xmlns="http://www.w3.org/2000/svg" width="1024" height="1024">
<path d="M0 0 C5.53130902 7.61378236 8.73533282 16.01036871 11.515625 24.921875 C11.89813416 26.10670471 12.28064331 27.29153442 12.67474365 28.51226807 C13.87981831 32.25406282 15.06549588 36.00164881 16.25 39.75 C17.45306687 43.51115171 18.66008196 47.27101553 19.86810303 51.03057861 C20.61430455 53.35777004 21.35689474 55.68612359 22.09527588 58.01580811 C25.3249637 69.68237837 25.3249637 69.68237837 32 79.4375 C40.41112728 88.54312403 40 100.16380605 40 112 C40.05667823 130.10869461 51.09515539 142.93283605 62.89453125 155.70703125 C64.76208204 157.74089454 66.5398422 159.82147023 68.3125 161.9375 C75.54804345 170.16876044 83.39321011 176.88223135 92.71484375 182.58789062 C96.96970752 185.2296467 100.78180416 188.1564002 104.5625 191.4375 C105.09407715 191.89866211 105.6256543 192.35982422 106.17333984 192.83496094 C106.7039502 193.29547852 107.23456055 193.75599609 107.78125 194.23046875 C118.01063784 203.10029379 128.77961695 210.69342746 141.125 216.375 C145.93404184 218.7221794 149.4370184 221.89771819 153.3203125 225.5390625 C161.12866738 232.71000065 169.16966992 238.28311209 178.61499023 243.03149414 C183.64094602 245.62959692 187.51958988 248.83559225 191.60546875 252.765625 C199.39724561 260.03625528 208.5776499 266.09561372 218.625 269.6875 C223.23798709 271.45024391 227.02651183 273.89973395 231.0625 276.6875 C243.23940538 285.07203158 256.31338495 291.46895905 270 297 C270.33 296.34 270.66 295.68 271 295 C271.4024292 295.46245117 271.8048584 295.92490234 272.21948242 296.40136719 C274.28457332 298.25550338 275.8330755 298.80365651 278.48828125 299.578125 C279.86512085 299.98333374 279.86512085 299.98333374 281.26977539 300.39672852 C282.27387451 300.67830811 283.27797363 300.9598877 284.3125 301.25 C285.37138428 301.55156006 286.43026855 301.85312012 287.52124023 302.16381836 C317.16955212 310.44970626 347.44742513 316.03474914 377.74267578 321.35205078 C406.32621289 326.37040309 426.5276251 338.27929018 443.5625 362.25 C455.45990247 379.69746614 470.19771346 402.89300139 466.52734375 424.82421875 C462.34239045 444.39576682 447.96696908 459.12008826 431.9140625 470.11328125 C408.99341075 484.68628823 384.0964161 492.22636383 358 499 C357.14674133 499.22212158 356.29348267 499.44424316 355.41436768 499.6730957 C302.899588 513.32540789 250.21619562 525.0069061 196 529 C194.82066895 529.08991211 193.64133789 529.17982422 192.42626953 529.27246094 C179.88119062 530.14932887 167.32104328 530.3894906 154.75 530.625 C153.59260315 530.64679321 152.4352063 530.66858643 151.24273682 530.69104004 C134.12561474 531.00050146 117.09047154 531.18446323 100 530 C98.78119141 529.91766113 97.56238281 529.83532227 96.30664062 529.75048828 C68.26492978 527.76099533 40.45484244 523.79200474 12.61376953 519.9921875 C-30.09009846 514.05876027 -30.09009846 514.05876027 -73 510 C-73.87930176 509.93232422 -74.75860352 509.86464844 -75.66455078 509.79492188 C-85.70133432 509.02952397 -95.74550945 508.88756431 -105.80877686 508.82577515 C-107.80696252 508.81293713 -109.80509828 508.79294711 -111.80322266 508.77270508 C-118.92968319 508.76677472 -125.61903865 509.31764299 -132.63891602 510.49560547 C-150.30250487 513.14636268 -168.61428489 512.19961489 -186.4375 512.1875 C-187.21389454 512.18738041 -187.99028908 512.18726082 -188.79021072 512.1871376 C-214.23680025 512.18217547 -239.6101647 511.85795017 -265 510 C-265.71343567 509.94908203 -266.42687134 509.89816406 -267.16192627 509.84570312 C-291.08501279 508.12343165 -315.92968079 506.05080264 -338 496 C-338.97453125 495.56171875 -339.9490625 495.1234375 -340.953125 494.671875 C-357.98101239 486.20658241 -369.71309594 472.0719402 -375.96875 454.23828125 C-381.97241501 433.86473287 -376.50689926 412.36560085 -367 394 C-366.4225 393.06929687 -365.845 392.13859375 -365.25 391.1796875 C-360.4696196 383.29665636 -360.31154348 375.90619186 -360.31298828 366.890625 C-360.27471101 357.52034913 -358.66174465 349.14149518 -353.9375 340.9375 C-353.43089844 340.03902344 -352.92429687 339.14054687 -352.40234375 338.21484375 C-351 336 -351 336 -349 334 C-348.52795612 332.11574045 -348.52795612 332.11574045 -348.33325195 329.92211914 C-348.23558029 329.07293411 -348.13790863 328.22374908 -348.03727722 327.34883118 C-347.93860855 326.42031845 -347.83993988 325.49180573 -347.73828125 324.53515625 C-347.50860657 322.53475815 -347.27827262 320.53443565 -347.04736328 318.53417969 C-346.92814514 317.47855835 -346.808927 316.42293701 -346.68609619 315.33532715 C-342.52677854 278.89831834 -336.0131361 243.4995099 -322.86621094 209.11132812 C-319.94363456 201.30044645 -317.93193505 193.34957407 -316.16552734 185.20410156 C-314.50361211 177.87559555 -311.78532354 171.96899712 -307.47070312 165.82080078 C-305.44172195 161.92922567 -304.76017686 158.04487968 -303.95703125 153.75390625 C-303.78370773 152.86517319 -303.61038422 151.97644012 -303.43180847 151.06077576 C-303.06845551 149.18651442 -302.70985287 147.31132667 -302.35571289 145.43530273 C-301.81460247 142.57361901 -301.2571727 139.7154807 -300.69726562 136.85742188 C-300.34538254 135.03143697 -299.99443962 133.20527059 -299.64453125 131.37890625 C-299.47895218 130.52873428 -299.31337311 129.67856232 -299.14277649 128.80262756 C-298.33197055 124.46925847 -297.81126017 120.43247187 -298 116 C-297.34 116 -296.68 116 -296 116 C-295.9232605 115.00141968 -295.9232605 115.00141968 -295.8449707 113.98266602 C-295.28425158 107.22744817 -294.38940942 100.60691892 -293.1875 93.9375 C-293.03474609 93.02162109 -292.88199219 92.10574219 -292.72460938 91.16210938 C-290.80086731 80.41804796 -287.22844536 69.34019841 -278.0859375 62.5859375 C-271.84496361 59.12978065 -265.33809913 58.13903441 -258.4375 60 C-254.57111828 61.2928026 -250.90561833 62.92693146 -247.20239258 64.61694336 C-239.83506716 67.97029291 -233.1701815 70.39313645 -225 71 C-223.60974609 71.10441406 -223.60974609 71.10441406 -222.19140625 71.2109375 C-197.90357979 72.0677672 -172.63516769 62.38531994 -149.875 54.875 C-149.09869232 54.62146759 -148.32238464 54.36793518 -147.52255249 54.10671997 C-135.010784 50.00206078 -125.23988907 46.17312638 -116.375 36.125 C-115.13396927 34.75155804 -113.89178791 33.37915486 -112.6484375 32.0078125 C-112.04249756 31.33741943 -111.43655762 30.66702637 -110.81225586 29.97631836 C-95.57113083 13.35542288 -71.28330623 -3.85215435 -48.578125 -7.55859375 C-47.30195312 -7.77708984 -47.30195312 -7.77708984 -46 -8 C-45.67 -8.66 -45.34 -9.32 -45 -10 C-29.12634817 -13.39920625 -12.38592583 -10.82957606 0 0 Z " fill="#0D553C" transform="translate(466,243)"/>
<path d="M0 0 C5.63981285 -0.14843691 10.68492438 0.31258134 16.1953125 1.46875 C16.96702789 1.62435394 17.73874329 1.77995789 18.53384399 1.9402771 C21.06577257 2.45289855 23.5952815 2.97659159 26.125 3.5 C27.9311799 3.86671473 29.73749772 4.23275073 31.54394531 4.59814453 C40.03548156 6.32286464 48.51451892 8.09686805 56.9765625 9.9609375 C76.54177001 14.25313449 96.17495359 17.85219196 115.9375 21.125 C116.59025154 21.23312767 117.24300308 21.34125534 117.91553497 21.45265961 C132.44241456 23.85578375 146.97850778 26.17457197 161.54516602 28.32299805 C186.21319687 31.96364654 210.60760651 36.84372961 235 42 C236.33061462 42.27973663 236.33061462 42.27973663 237.68811035 42.56512451 C266.22467556 48.57622047 294.09348032 56.56890329 322 65 C323.45452783 65.43754344 324.90911249 65.87489803 326.36376953 66.31201172 C336.47864747 69.35847515 346.55777846 72.48374803 356.5625 75.875 C390.08841144 87.17653386 423.72862871 96.18674264 459 100 C459.78622238 100.08588379 460.57244476 100.17176758 461.38249207 100.26025391 C468.6240319 100.99225841 475.80674143 101.17551347 483.08203125 101.203125 C484.31788467 101.21009399 485.5537381 101.21706299 486.82704163 101.22424316 C490.82223251 101.24162069 494.81727959 101.24842411 498.8125 101.25 C499.49376198 101.25058914 500.17502396 101.25117828 500.87693024 101.25178528 C523.70608389 101.26572213 546.30044698 100.56027529 569 98 C570.33673282 97.85383476 571.67348401 97.70783745 573.01025391 97.56201172 C636.9656948 90.41716907 702.99155935 76.25355033 762.47485352 51.26391602 C763.54405029 50.82104248 764.61324707 50.37816895 765.71484375 49.921875 C766.64417725 49.52581055 767.57351074 49.12974609 768.53100586 48.72167969 C771.20372983 47.94045037 772.45792377 47.90649519 775 49 C777.09885045 53.19770089 776.40102051 58.42954567 776 63 C774.7855332 66.06256846 773.99733522 67.5558216 772 70 C771.05060547 71.18722656 771.05060547 71.18722656 770.08203125 72.3984375 C739.61754799 108.30878413 677.66725561 116.09508329 634 126 C633.23929199 126.17293579 632.47858398 126.34587158 631.69482422 126.52404785 C590.95538643 135.76231713 549.6899299 142.13586592 508 145 C507.22172852 145.05784668 506.44345703 145.11569336 505.64160156 145.17529297 C494.76911194 145.9673442 483.87155543 146.14757337 472.97348022 146.23016357 C471.51934303 146.24278174 470.06523361 146.26018894 468.61123657 146.28399658 C437.58129956 146.75385929 406.4201802 142.52663288 375.67236328 138.84179688 C344.99104286 135.17187135 314.30498501 131.93125068 283.5 129.5 C282.75294674 129.44068172 282.00589348 129.38136345 281.23620224 129.32024765 C264.94757564 128.02840522 248.65055162 126.88063936 232.34375 125.84375 C231.66396591 125.80002762 230.98418182 125.75630524 230.28379822 125.71125793 C228.35798005 125.58815615 226.4319229 125.46881079 224.50585938 125.34960938 C223.41511108 125.28173218 222.32436279 125.21385498 221.20056152 125.1439209 C215.69363532 124.8962888 210.59857392 124.90063761 205.19921875 126.05859375 C204.13896484 126.27966797 203.07871094 126.50074219 201.98632812 126.72851562 C200.89771484 126.96248047 199.80910156 127.19644531 198.6875 127.4375 C184.2351247 130.52517085 170.66830889 131.16697936 155.9375 131.125 C154.97580902 131.1234491 154.01411804 131.12189819 153.02328491 131.12030029 C16.15120355 130.86381399 16.15120355 130.86381399 -9.87109375 105.5703125 C-18.24114178 95.46482331 -19.99868991 84.21077111 -19.28710938 71.51318359 C-18.23369032 62.29218381 -15.23111544 51.72885524 -10 44 C-2.29417992 44.61047373 4.86610281 46.36546158 12.32421875 48.3515625 C13.63255399 48.69302123 14.94113924 49.0335232 16.24995422 49.37313843 C21.74053301 50.79914326 27.22785683 52.23726467 32.71118164 53.69091797 C54.97070058 59.58248866 77.30725781 64.11757997 100 68 C100.79040051 68.13572418 101.58080101 68.27144836 102.39515305 68.4112854 C113.5567958 70.32693381 124.72729998 72.18715598 135.90130615 74.02912521 C140.15085128 74.73067002 144.39960463 75.43697899 148.6484375 76.14282227 C162.19538563 78.39216527 175.74385957 80.63208669 189.29534912 82.85391235 C215.64306768 87.17391089 241.81671853 91.82810855 267.8828125 97.640625 C272.25511297 98.61501203 276.62752094 99.58891474 281 100.5625 C282.08279236 100.80397766 283.16558472 101.04545532 284.28118896 101.29425049 C310.88617266 108.04559996 310.88617266 108.04559996 338 111 C277.86735065 85.75139174 218.78573134 68.51890069 154.51074219 57.71020508 C63.22955132 42.35943991 63.22955132 42.35943991 20 28 C19.1136084 27.70818848 18.2272168 27.41637695 17.31396484 27.11572266 C14.91284409 26.31963651 12.51749365 25.50911173 10.125 24.6875 C9.44687256 24.45724121 8.76874512 24.22698242 8.07006836 23.98974609 C1.2505386 21.56885299 1.2505386 21.56885299 -1 19 C-1.32685969 16.36413152 -1.42541553 14.17963115 -1.3125 11.5625 C-1.28800781 10.24378906 -1.26351562 8.92507813 -1.23828125 7.56640625 C-1.05668221 4.84837473 -0.81072775 2.57719148 0 0 Z " fill="#45977C" transform="translate(132,601)"/>
<path d="M0 0 C2.54772659 3.07484244 3.87604857 6.01517428 5.25 9.75 C8.88720683 18.66387106 14.32288565 24.74752531 23 29 C32.69423302 32.63533738 39.82781797 30.99641895 49 27 C52.9763839 24.8275964 56.7655445 22.40757921 60.5625 19.9375 C62.65703921 18.60075853 64.75209705 17.2648294 66.84765625 15.9296875 C67.87777832 15.26936523 68.90790039 14.60904297 69.96923828 13.92871094 C74.44388061 11.08114574 78.96724409 8.31629339 83.5 5.5625 C84.64770874 4.86338501 84.64770874 4.86338501 85.81860352 4.15014648 C87.54499792 3.09888515 89.27237013 2.04922976 91 1 C98.3725255 7.14861799 98.3725255 7.14861799 101.0625 10.5625 C103.00973249 12.9348695 104.97357261 14.90035641 107.375 16.8125 C108.24125 17.534375 109.1075 18.25625 110 19 C110 19.66 110 20.32 110 21 C107.98730469 22.46118164 107.98730469 22.46118164 105.171875 24.16015625 C104.14916504 24.7850293 103.12645508 25.40990234 102.07275391 26.05371094 C100.97624512 26.71661133 99.87973633 27.37951172 98.75 28.0625 C83.87763939 36.31890774 83.87763939 36.31890774 72 48 C71.33292452 51.41499591 71.33292452 51.41499591 72 55 C75.28913372 58.95503196 78.88973331 60.87663703 83.9375 61.4375 C90.28822095 61.29726326 94.78076202 58.33793301 100 55 C100.75877441 54.51708496 101.51754883 54.03416992 102.29931641 53.53662109 C106.59509573 50.79119822 110.8724576 48.01881966 115.1328125 45.21875 C115.93879883 44.69152344 116.74478516 44.16429687 117.57519531 43.62109375 C119.22862441 42.51570015 120.86299585 41.38138935 122.47949219 40.22265625 C123.26743164 39.66449219 124.05537109 39.10632813 124.8671875 38.53125 C125.5669873 38.02142578 126.26678711 37.51160156 126.98779297 36.98632812 C129 36 129 36 130.97851562 36.15087891 C133.42227545 37.17737609 135.34208389 38.48056028 137.4765625 40.0546875 C138.311875 40.66957031 139.1471875 41.28445313 140.0078125 41.91796875 C141.30332031 42.88669922 141.30332031 42.88669922 142.625 43.875 C143.49640625 44.51308594 144.3678125 45.15117187 145.265625 45.80859375 C151.73901467 50.608522 151.73901467 50.608522 154 54 C152.66230206 54.86415724 151.32441866 55.72802818 149.98583984 56.59082031 C148.7681385 57.37573016 147.55103309 58.16156516 146.33447266 58.94824219 C142.57446682 61.37170891 138.79207947 63.75217597 134.98046875 66.09375 C134.13395752 66.61743164 133.28744629 67.14111328 132.4152832 67.68066406 C130.74777425 68.7108176 129.07584582 69.73385826 127.39916992 70.74902344 C123.15812371 73.37941719 119.72685848 75.69329495 117 80 C116.33319632 83.04279372 116.33319632 83.04279372 117 86 C120.25905279 90.34540372 123.89115138 91.66258422 129.125 92.5 C134.89474603 91.75551664 139.10795608 88.99911128 144 86 C144.7940625 85.51708496 145.588125 85.03416992 146.40625 84.53662109 C150.92183971 81.78493361 155.42523732 79.0138924 159.9140625 76.21875 C160.76129883 75.69152344 161.60853516 75.16429687 162.48144531 74.62109375 C165.73864955 72.52456058 168.88182308 70.27668871 172.00537109 67.98632812 C174 67 174 67 176.12866211 67.25537109 C178.51147771 68.20352342 180.19714862 69.50806609 182.1875 71.125 C182.96351563 71.74761719 183.73953125 72.37023437 184.5390625 73.01171875 C185.75722656 73.99591797 185.75722656 73.99591797 187 75 C188.68489279 76.31584528 190.37227615 77.62850961 192.0625 78.9375 C193.375 79.95833333 194.6875 80.97916667 196 82 C192.19896864 86.1232768 188.23277782 88.93923237 183.4375 91.8125 C182.01494541 92.68639471 180.59307717 93.5614076 179.171875 94.4375 C178.46998047 94.86804688 177.76808594 95.29859375 177.04492188 95.7421875 C174.07262017 97.57042274 171.12162121 99.42321219 168.1875 101.3125 C167.25292969 101.90675781 166.31835938 102.50101563 165.35546875 103.11328125 C162.75393325 105.19709824 161.43205864 107.00266795 160 110 C159.83551119 113.09648876 159.83551119 113.09648876 161 116 C164.77342323 119.67412262 167.54406012 120.90452853 172.8125 121.25 C176.90088207 121.18297734 179.4631956 120.13681933 183 118 C183.84485962 117.49932007 183.84485962 117.49932007 184.70678711 116.98852539 C188.92742251 114.43141023 192.9938696 111.65630905 197.06640625 108.87109375 C198.67032227 107.77958008 198.67032227 107.77958008 200.30664062 106.66601562 C202.46046902 105.19179955 204.60397594 103.70237822 206.73632812 102.19726562 C207.73212891 101.51212891 208.72792969 100.82699219 209.75390625 100.12109375 C210.64408447 99.4964624 211.5342627 98.87183105 212.45141602 98.22827148 C215.53538852 96.7419734 216.80175214 96.91767925 220 98 C222.08308999 99.15757918 224.12229281 100.39582767 226.125 101.6875 C231.94974746 105.39011765 237.89719435 108.77126114 244 112 C243.77563477 113.82910156 243.77563477 113.82910156 243 116 C241.08569336 117.42871094 241.08569336 117.42871094 238.58984375 118.734375 C237.68169922 119.22679687 236.77355469 119.71921875 235.83789062 120.2265625 C233.93216016 121.22755224 232.02592504 122.22758189 230.11914062 123.2265625 C222.74843328 127.22528778 215.36649146 131.97292258 212 140 C211.68561516 142.45343022 211.68561516 142.45343022 211.75 145 C211.74484375 145.845625 211.7396875 146.69125 211.734375 147.5625 C212.01679968 150.15416176 212.78487208 151.72283114 214 154 C214.15020692 157.30455223 213.59789485 159.247861 211.53125 161.84765625 C207.01499823 166.50272724 201.98349184 170.51889144 196.93359375 174.57421875 C193.26363655 177.60889707 189.76923435 180.80450586 186.28369141 184.04736328 C183.4579548 186.67502991 180.58476466 189.21257298 177.625 191.6875 C171.5122979 196.99790995 166.66078482 203.09131275 165.5625 211.25 C166.2812656 217.41084796 169.05204966 222.80692079 173.9375 226.75 C185.79220919 234.00437428 199.33501923 236.39205901 213 234 C219.79544358 231.97889099 225.91516043 228.57714811 232 225 C232.67788574 224.60506348 233.35577148 224.21012695 234.05419922 223.80322266 C237.20383621 221.95365854 240.32423479 220.0608427 243.43359375 218.14453125 C247.00611486 215.96606894 250.65082321 213.96892987 254.375 212.0625 C255.96441406 211.24458984 255.96441406 211.24458984 257.5859375 210.41015625 C265.17343021 207.27619187 272.35560358 206.69921621 280.5 206.8125 C281.50861084 206.81894531 282.51722168 206.82539062 283.55639648 206.83203125 C289.44628996 206.89030646 295.32065584 207.08069259 301.20361328 207.36303711 C344.29581524 209.62301707 344.29581524 209.62301707 387 205 C387.91007812 204.83371094 388.82015625 204.66742187 389.7578125 204.49609375 C408.84903391 200.98476556 427.72548933 195.49069543 445.1953125 186.93359375 C448.62461851 185.79208381 450.5421404 186.01802372 454 187 C462.32187352 191.35700184 467.14100909 199.29932378 472 207 C472.49113281 207.75539063 472.98226563 208.51078125 473.48828125 209.2890625 C474.625 211.125 474.625 211.125 476 214 C475.67 214.99 475.34 215.98 475 217 C472.36185792 218.30492129 469.80562494 219.39335328 467.0625 220.4375 C466.20076172 220.77313965 465.33902344 221.1087793 464.45117188 221.45458984 C443.61325452 229.4595735 422.50129858 236.98474184 401 243 C400.28214828 243.20124985 399.56429657 243.40249969 398.82469177 243.60984802 C386.4038402 247.06043448 373.93786109 249.73861402 361.25 252 C360.30590271 252.1698642 359.36180542 252.33972839 358.38909912 252.51473999 C326.80697553 258.17088021 295.11662081 261.77750877 263.10598755 263.85925293 C261.11606379 263.99224324 259.12718876 264.14066509 257.13842773 264.29003906 C242.27313144 265.33683923 227.35555315 265.2226781 212.46118164 265.24023438 C209.28398178 265.24462322 206.10705283 265.25855861 202.92993164 265.28125 C186.10549617 265.39893381 169.55727935 265.49573007 152.95193481 262.36547852 C150.30827539 261.87048211 147.65050801 261.47802028 144.9921875 261.0703125 C124.76706746 257.48778811 105.24863572 251.00688754 85.6942749 244.84796143 C83.04797897 244.01510028 80.40038144 243.18650395 77.75244141 242.35888672 C73.70563285 241.09237284 69.6622612 239.81550869 65.62203979 238.52813721 C64.1312204 238.05334106 62.63978909 237.58046174 61.1477356 237.10955811 C59.1036593 236.46245782 57.06313907 235.805271 55.0234375 235.14453125 C53.87794434 234.77690674 52.73245117 234.40928223 51.55224609 234.03051758 C49 233 49 233 48 231 C48.80179687 230.42894531 49.60359375 229.85789062 50.4296875 229.26953125 C51.57817116 228.45058556 52.726604 227.6315686 53.875 226.8125 C54.50140381 226.36616211 55.12780762 225.91982422 55.77319336 225.45996094 C59.26235941 222.96971108 62.73980873 220.46504528 66.19921875 217.93359375 C80.19235221 207.70954785 94.49056969 197.96255517 109.25 188.875 C130.44635992 176.95651646 130.44635992 176.95651646 144 158 C144.87151927 150.40402151 144.91586333 143.44434987 140.5859375 136.9375 C134.95171382 130.05431048 127.48211581 125.55139528 120.1171875 120.7265625 C109.85694814 113.97936647 99.94616504 106.6978826 90 99.5 C77.82002557 90.6891215 65.57304387 81.99218911 53.125 73.5625 C52.28155029 72.98314697 51.43810059 72.40379395 50.5690918 71.80688477 C42.34108505 66.28161946 33.88882774 62.08557978 24.1875 59.9375 C23.48810303 59.77886475 22.78870605 59.62022949 22.06811523 59.45678711 C17.85331521 58.52703161 13.62390072 57.75116281 9.3671875 57.0390625 C8.40401611 56.87543213 7.44084473 56.71180176 6.44848633 56.54321289 C4.58112013 56.23216949 2.71117794 55.93606452 0.83862305 55.65795898 C-9.53733941 53.95175765 -19.37497414 49.3921348 -25.65625 40.7109375 C-29.42312732 34.74671508 -33 28.19900855 -33 21 C-31.47802734 19.70068359 -31.47802734 19.70068359 -29.3359375 18.3984375 C-28.54936768 17.91213867 -27.76279785 17.42583984 -26.95239258 16.92480469 C-26.10185303 16.41336914 -25.25131348 15.90193359 -24.375 15.375 C-22.63638306 14.30523288 -20.89810496 13.23491488 -19.16015625 12.1640625 C-18.29148926 11.63329102 -17.42282227 11.10251953 -16.52783203 10.55566406 C-12.92327972 8.33737091 -9.36533797 6.04989114 -5.8125 3.75 C-4.67322396 3.01555228 -3.53390615 2.28116934 -2.39453125 1.546875 C-1.60433594 1.03640625 -0.81414062 0.5259375 0 0 Z " fill="#45977C" transform="translate(420,415)"/>
<path d="M0 0 C0.44988281 1.01578125 0.89976562 2.0315625 1.36328125 3.078125 C8.69170502 19.00070295 18.56299617 30.53791254 35.21948242 37.07666016 C39.84846488 38.61382862 44.55981493 39.24789614 49.375 39.9375 C57.88994602 41.31083492 65.29915427 42.98771223 73 47 C74.46980963 47.73095648 75.93988577 48.46137719 77.41015625 49.19140625 C87.00836497 54.03366715 96.05047408 59.38245947 104.86669922 65.52197266 C107.3072314 67.21286094 109.7638299 68.87879823 112.22265625 70.54296875 C121.35256838 76.72738783 130.43553347 82.97126816 139.43017578 89.35083008 C145.68273389 93.7845028 151.96204807 98.17918312 158.25 102.5625 C159.2392749 103.25400146 160.2285498 103.94550293 161.24780273 104.65795898 C162.18180908 105.30837158 163.11581543 105.95878418 164.078125 106.62890625 C164.90731445 107.20713135 165.73650391 107.78535645 166.59082031 108.38110352 C169.00751987 110.05769286 169.00751987 110.05769286 171.73730469 111.49975586 C174 113 174 113 175.125 116.375 C175 120 175 120 172.94921875 122.421875 C169.68997474 125.27101546 166.34490656 127.57707992 162.6875 129.875 C161.59900757 130.57012695 161.59900757 130.57012695 160.48852539 131.27929688 C155.03276686 134.75119478 149.53562771 138.15666053 144.04272461 141.56933594 C128.00384476 151.54146125 112.62064422 162.19399762 97.34814453 173.29443359 C93.25775995 176.26546985 89.16005252 179.22636188 85.0625 182.1875 C84.2988916 182.74034668 83.5352832 183.29319336 82.74853516 183.86279297 C82.03874512 184.37600098 81.32895508 184.88920898 80.59765625 185.41796875 C79.97383057 185.86938232 79.35000488 186.3207959 78.70727539 186.78588867 C74.84199264 189.53464473 73.21869216 190.2145157 68.47900391 189.47607422 C63.34542229 188.49020814 58.26772792 187.29058988 53.1875 186.0625 C52.05634766 185.79759766 50.92519531 185.53269531 49.75976562 185.25976562 C48.67759766 185.00001953 47.59542969 184.74027344 46.48046875 184.47265625 C45.49973389 184.23812744 44.51899902 184.00359863 43.50854492 183.76196289 C41 183 41 183 38 181 C37.18468506 178.14044649 36.5053289 175.33741025 35.875 172.4375 C32.14389818 157.0124898 24.41267987 143.88541249 14 132 C13.56381348 131.50193848 13.12762695 131.00387695 12.67822266 130.49072266 C4.88892934 121.79734016 -4.2178196 115.21185191 -13.76025391 108.56835938 C-58.43252497 77.28705685 -58.43252497 77.28705685 -62 59 C-62.33903985 55.28670641 -62.28040868 51.71541496 -62 48 C-61.95359375 47.22527344 -61.9071875 46.45054687 -61.859375 45.65234375 C-61.00058843 39.24534391 -57.66720466 34.55398887 -52.82714844 30.36083984 C-47.20969261 26.17702119 -40.72928101 23.18107137 -34.53515625 19.95703125 C-29.76331981 17.45742026 -25.25555153 14.72883968 -20.8125 11.6875 C-20.21969238 11.28225098 -19.62688477 10.87700195 -19.01611328 10.45947266 C-17.34233699 9.30883999 -15.67112165 8.15448475 -14 7 C-11.92497283 5.61249684 -9.84234309 4.23625059 -7.75 2.875 C-6.89921875 2.31554687 -6.0484375 1.75609375 -5.171875 1.1796875 C-3 0 -3 0 0 0 Z " fill="#45967B" transform="translate(367,449)"/>
<path d="M0 0 C4.99153087 0.4197083 8.99347672 2.22084872 13.375 4.5 C14.06980469 4.85602295 14.76460937 5.2120459 15.48046875 5.57885742 C17.66103844 6.70573065 19.83190227 7.84933087 22 9 C22.67450195 9.35658691 23.34900391 9.71317383 24.04394531 10.08056641 C34.54569402 15.68098502 44.32342885 22.08496132 54 29 C54.74072754 29.52674316 55.48145508 30.05348633 56.24462891 30.59619141 C65.98721441 37.53337435 75.58333937 44.62635552 85 52 C85.55075195 52.42990234 86.10150391 52.85980469 86.66894531 53.30273438 C92.66812493 57.98585464 98.63921987 62.70046205 104.55761719 67.48535156 C107.07253578 69.5116574 109.60127299 71.5200616 112.13525391 73.52246094 C113.35529383 74.48916448 114.57130149 75.46098444 115.78271484 76.43847656 C126.34230685 84.91544169 137.6674299 90.50918205 150 96 C175.81637164 107.50070121 197.50966982 122.57104429 211 148 C211.40476562 148.71542969 211.80953125 149.43085937 212.2265625 150.16796875 C213 152 213 152 213 156 C204.67683119 155.45886177 196.56063958 154.12143202 188.3671875 152.61993408 C173.73425166 149.94681242 159.06728867 147.50453754 144.375 145.18359375 C143.59581648 145.06048513 142.81663296 144.93737652 142.01383781 144.81053734 C138.80185913 144.30327065 135.58981958 143.79639086 132.37773037 143.28982449 C90.76451276 136.72564559 49.30893633 129.89007882 8.37646484 119.81640625 C3.74606313 118.69680659 -0.90442527 117.68431212 -5.5625 116.6875 C-11.18841949 115.47325866 -16.59844058 114.00057756 -22 112 C-22.70215133 77.43421718 -16.97156373 32.10865288 -1 1 C-0.67 0.67 -0.34 0.34 0 0 Z " fill="#44967B" transform="translate(165,466)"/>
<path d="M0 0 C0.82951172 -0.020625 1.65902344 -0.04125 2.51367188 -0.0625 C10.1605044 -0.11078308 16.064119 1.84620773 21.6875 7.25 C23.70703125 10.2734375 23.70703125 10.2734375 25.5 13.625 C26.10457031 14.72585938 26.70914063 15.82671875 27.33203125 16.9609375 C28.78980202 20.49823718 29.35253877 22.48313919 28.6875 26.25 C25.47577676 30.2691397 21.65878637 32.67431326 17.25 35.25 C9.35092215 39.57619622 9.35092215 39.57619622 3.6875 46.25 C3.18718794 49.66571853 3.18718794 49.66571853 3.6875 53.25 C5.85416667 55.66666667 5.85416667 55.66666667 8.6875 57.25 C9.30625 57.683125 9.925 58.11625 10.5625 58.5625 C14.87943789 59.95915638 19.00251271 58.54539079 23.0390625 56.8046875 C25.22759341 55.68169431 27.41508937 54.55668196 29.6015625 53.4296875 C32.6875 52.25 32.6875 52.25 35.41015625 52.18359375 C37.6875 53.25 37.6875 53.25 39.26953125 55.91796875 C42.14667704 64.1475191 44.86147527 72.51018022 42.6875 81.25 C39.99818161 84.89523725 36.50045871 86.88175946 32.6875 89.25 C31.49010605 90.10182377 30.30037116 90.96448329 29.1171875 91.8359375 C5.12574079 109.438915 -20.73163143 124.33170368 -46.75 138.6875 C-55.91112378 143.74895644 -64.99955472 148.9087609 -74 154.25 C-75.02085693 154.84868896 -76.04171387 155.44737793 -77.09350586 156.06420898 C-90.89676959 164.33369544 -100.31238289 174.3415575 -104.83813477 190.07763672 C-105.36517316 192.49121759 -105.52356561 194.76639425 -105.62890625 197.234375 C-105.67080078 198.16894531 -105.71269531 199.10351562 -105.75585938 200.06640625 C-105.79517578 201.03449219 -105.83449219 202.00257813 -105.875 203 C-105.93977539 204.47533203 -105.93977539 204.47533203 -106.00585938 205.98046875 C-106.11172052 208.40351275 -106.21380171 210.8266554 -106.3125 213.25 C-115.62818996 209.32273525 -123.04532068 203.28759736 -130.93701172 197.10302734 C-153.78955698 179.27663284 -177.03849358 163.69413987 -203.40942383 151.56005859 C-204.25142334 151.17027832 -205.09342285 150.78049805 -205.9609375 150.37890625 C-206.70520996 150.03931885 -207.44948242 149.69973145 -208.21630859 149.34985352 C-210.4699538 148.16738535 -212.38633045 146.91508992 -214.3125 145.25 C-215.00466442 139.58595028 -213.29952804 134.02924486 -210.3125 129.25 C-209.3225 128.26 -209.3225 128.26 -208.3125 127.25 C-202.08426628 127.47100184 -197.81820792 129.20100264 -192.4375 132.1875 C-186.44676309 135.32149822 -181.14986982 137.76388097 -174.3125 138.25 C-173.28253906 138.32992187 -172.25257813 138.40984375 -171.19140625 138.4921875 C-144.78293139 139.51135679 -117.54230819 125.84947003 -94.33056641 114.69287109 C-91.17287322 113.18324751 -88.00030101 111.70878605 -84.82421875 110.23828125 C-54.53043897 96.28300987 -54.53043897 96.28300987 -32.3125 72.25 C-31.71501953 71.26580078 -31.71501953 71.26580078 -31.10546875 70.26171875 C-23.28299976 56.11096024 -24.42623882 40.04212758 -26.875 24.65234375 C-28.01487546 15.78777657 -28.01487546 15.78777657 -26.28125 11.9921875 C-18.85631818 2.55304545 -11.64258382 0.07137216 0 0 Z " fill="#45977C" transform="translate(387.3125,299.75)"/>
<path d="M0 0 C3.53393377 6.4866901 3.48311856 12.46761818 3.4375 19.75 C3.45748047 20.86632812 3.47746094 21.98265625 3.49804688 23.1328125 C3.49195213 33.59139507 1.295792 42.20389247 -5.828125 50.05078125 C-11.3373759 54.99523485 -17.33135478 59.01498169 -23.8125 62.5625 C-24.57473877 62.98104248 -25.33697754 63.39958496 -26.12231445 63.83081055 C-103.22573583 105.53726979 -103.22573583 105.53726979 -128.04443359 98.52392578 C-146.11101637 92.88898363 -146.11101637 92.88898363 -150 89 C-149.85957978 80.56009184 -148.46722946 72.36283823 -146.75 64.125 C-144.43798214 52.6210731 -142.50042429 41.08701245 -140.70019531 29.49462891 C-137.84675783 11.27013674 -137.84675783 11.27013674 -135 7 C-130.92835236 8.07148622 -127.67015595 9.73271937 -124.125 11.9375 C-107.70242969 22.07794251 -84.69587281 21.35633751 -66.25 17.25 C-62.13620632 16.26946037 -58.07070106 15.14548378 -54 14 C-52.3444524 13.53904077 -50.68884894 13.07828214 -49.03320312 12.61767578 C-38.09659909 9.56531852 -27.18395672 6.43377292 -16.28515625 3.24926758 C-15.55965576 3.03823395 -14.83415527 2.82720032 -14.08666992 2.60977173 C-12.71824565 2.20988748 -11.35115635 1.80539999 -9.9855957 1.39584351 C-6.53220821 0.3731503 -3.61360339 -0.21900627 0 0 Z " fill="#44967B" transform="translate(336,318)"/>
<path d="M0 0 C3.20065894 1.2259475 6.20500084 2.80768287 9.25 4.375 C49.64220112 24.3121533 93.68118924 34.51156012 138 41 C140.12652247 41.32146211 142.25283873 41.64429259 144.37890625 41.96875 C148.91734265 42.65948201 153.45762855 43.33565792 158 44 C155.28780881 47.48270005 151.54202475 48.49524497 147.5 49.8125 C146.7260791 50.06676758 145.9521582 50.32103516 145.15478516 50.58300781 C137.9830109 52.84631702 130.70870299 54.59765967 123.375 56.25 C122.29283203 56.49596924 121.21066406 56.74193848 120.09570312 56.99536133 C104.66300343 60.34612499 89.89165269 61.26622053 74.15550995 61.08919907 C70.90803719 61.05385671 67.66076835 61.03364813 64.41314697 61.0173645 C55.19222823 60.96892863 45.97158889 60.89727282 36.75097656 60.80810547 C31.07857289 60.754293 25.40632302 60.72037805 19.73371124 60.69836807 C17.58885213 60.68603719 15.44402149 60.6661396 13.29930878 60.6382103 C-2.76268967 60.34193346 -2.76268967 60.34193346 -18 65 C-19.09280273 65.49653076 -20.18560547 65.99306152 -21.31152344 66.50463867 C-22.57270996 67.20423706 -22.57270996 67.20423706 -23.859375 67.91796875 C-24.82270752 68.44616211 -25.78604004 68.97435547 -26.77856445 69.51855469 C-27.75913818 70.06930664 -28.73971191 70.62005859 -29.75 71.1875 C-30.78406982 71.75758789 -31.81813965 72.32767578 -32.88354492 72.91503906 C-39.7046336 76.68446261 -46.50775418 80.49165329 -53.26660156 84.37182617 C-59.64736814 88.01535914 -64.73218998 88.59502538 -72 88 C-75.125 86.75 -75.125 86.75 -77 85 C-77.6171875 82.890625 -77.6171875 82.890625 -78 81 C-77.16339844 80.28457031 -76.32679688 79.56914063 -75.46484375 78.83203125 C-69.1262886 73.4074073 -62.80035344 67.96896489 -56.5 62.5 C-51.49086696 58.15295618 -46.47202694 53.81761893 -41.4375 49.5 C-40.87804687 49.01982422 -40.31859375 48.53964844 -39.7421875 48.04492188 C-38.93974609 47.3575293 -38.93974609 47.3575293 -38.12109375 46.65625 C-37.60546875 46.2142627 -37.08984375 45.77227539 -36.55859375 45.31689453 C-35.49242376 44.41606105 -34.41632959 43.52687841 -33.33203125 42.64794922 C-29.6944263 39.69678844 -27.60693378 37.46370494 -26 33 C-25.50086814 27.60937593 -26.55610245 23.14388504 -28 18 C-7.61108954 -0.74044536 -7.61108954 -0.74044536 0 0 Z " fill="#45987C" transform="translate(689,541)"/>
<path d="M0 0 C7.32104424 4.93049918 9.18978959 17.0110174 11.875 25 C15.04256707 34.36986057 18.29058116 43.67724353 22.16918945 52.78295898 C24.11117621 57.50088228 24.11117621 57.50088228 23.88500977 60.11035156 C22.7719816 62.7520177 21.51175691 63.30126456 18.984375 64.60546875 C18.15292969 65.03923828 17.32148438 65.47300781 16.46484375 65.91992188 C15.58957031 66.35884766 14.71429688 66.79777344 13.8125 67.25 C12.52279297 67.92579102 12.52279297 67.92579102 11.20703125 68.61523438 C7.13136039 70.70958912 3.6144594 72.30936676 -0.9375 73.0625 C-1.22882813 72.22589844 -1.52015625 71.38929688 -1.8203125 70.52734375 C-3.16925186 66.69686499 -4.54420258 62.8770266 -5.9375 59.0625 C-6.17807129 58.40040527 -6.41864258 57.73831055 -6.66650391 57.05615234 C-10.77397234 45.87425136 -15.16141788 36.21248626 -25.9375 30.0625 C-32.64759795 27.04672564 -39.15995889 26.17152513 -46.4375 25.375 C-47.54609375 25.24544922 -48.6546875 25.11589844 -49.796875 24.98242188 C-52.50951152 24.66672711 -55.22285426 24.36033213 -57.9375 24.0625 C-55.28104293 21.23245042 -52.75949178 19.1841999 -49.375 17.29296875 C-48.50109619 16.79974121 -47.62719238 16.30651367 -46.72680664 15.79833984 C-45.80633545 15.2873877 -44.88586426 14.77643555 -43.9375 14.25 C-42.0400492 13.18415502 -40.14291193 12.11775167 -38.24609375 11.05078125 C-37.3319873 10.53854004 -36.41788086 10.02629883 -35.47607422 9.49853516 C-31.40826749 7.19743502 -27.40641748 4.79025992 -23.41015625 2.3671875 C-16.19013767 -1.44242736 -7.8787224 -2.51304076 0 0 Z " fill="#46987D" transform="translate(442.9375,255.9375)"/>
<path d="M0 0 C0.50789063 0.90621094 1.01578125 1.81242187 1.5390625 2.74609375 C5.44784488 9.67789642 9.43864723 16.46897217 14 23 C12.58478515 26.5095648 11.14160163 27.82966205 7.84375 29.62890625 C6.99425781 30.10166992 6.14476562 30.57443359 5.26953125 31.06152344 C4.35558594 31.5568457 3.44164062 32.05216797 2.5 32.5625 C0.59223001 33.61835201 -1.31399266 34.67700407 -3.21875 35.73828125 C-4.66507812 36.54386475 -4.66507812 36.54386475 -6.140625 37.36572266 C-11.27487989 40.30020884 -16.26831917 43.47254877 -21.22460938 46.69750977 C-24.15888624 48.54996075 -26.3864988 49.89068832 -29.828125 50.50390625 C-32.586793 49.86385558 -33.24333491 49.0502248 -34.75 46.6875 C-35.15734375 46.07261719 -35.5646875 45.45773437 -35.984375 44.82421875 C-38.1339311 40.96328529 -38.22457862 37.53266719 -38.3125 33.1875 C-38.36857422 31.38345703 -38.36857422 31.38345703 -38.42578125 29.54296875 C-37.89506604 25.12683395 -36.94826027 23.34195815 -34 20 C-30.96814931 17.79357848 -27.76658017 15.96007606 -24.5 14.125 C-22.69910123 13.08317925 -20.89961738 12.03890881 -19.1015625 10.9921875 C-17.79300293 10.23373535 -17.79300293 10.23373535 -16.45800781 9.45996094 C-12.21260611 6.93835762 -8.16777143 4.15091153 -4.1171875 1.328125 C-2 0 -2 0 0 0 Z " fill="#469A7E" transform="translate(482,375)"/>
<path d="M0 0 C0.99 0.33 1.98 0.66 3 1 C4.19326874 9.38602754 4.19326874 9.38602754 1.78125 12.6484375 C-0.39029676 14.29614622 -2.64041604 15.63033778 -5 17 C-6.35603453 17.85698368 -7.70861519 18.7194454 -9.05859375 19.5859375 C-20.66909893 27 -20.66909893 27 -22 27 C-22.66 21.72 -23.32 16.44 -24 11 C-22.51886719 10.37351562 -21.03773438 9.74703125 -19.51171875 9.1015625 C-17.57024455 8.27620149 -15.62884201 7.45067188 -13.6875 6.625 C-12.22280273 6.00625 -12.22280273 6.00625 -10.72851562 5.375 C-9.79072266 4.97539062 -8.85292969 4.57578125 -7.88671875 4.1640625 C-7.02264404 3.79748535 -6.15856934 3.4309082 -5.26831055 3.05322266 C-2.80177535 1.97813656 -2.80177535 1.97813656 0 0 Z " fill="#479C7F" transform="translate(476,339)"/>
<path d="M0 0 C35.31 0 70.62 0 107 0 C107 0.33 107 0.66 107 1 C96.73759844 2.77700944 86.80968434 3.28447595 76.42578125 3.23046875 C74.88356057 3.22927285 73.34133916 3.22882465 71.79911804 3.2290802 C68.59983628 3.22753158 65.40066902 3.21936008 62.20141602 3.20581055 C58.10145477 3.18866363 54.00161666 3.18500162 49.90162373 3.18575573 C46.73181484 3.18548427 43.56203285 3.18000942 40.39223289 3.17275429 C38.87915436 3.169577 37.36607279 3.16760241 35.8529911 3.16686058 C33.75000383 3.16469599 31.64714843 3.15595389 29.54418945 3.14526367 C28.34953568 3.14145187 27.1548819 3.13764008 25.92402649 3.13371277 C23 3 23 3 20 2 C18.44733347 1.8535286 16.89004338 1.75305926 15.33203125 1.68359375 C14.43935547 1.64169922 13.54667969 1.59980469 12.62695312 1.55664062 C11.69818359 1.51732422 10.76941406 1.47800781 9.8125 1.4375 C8.87212891 1.39431641 7.93175781 1.35113281 6.96289062 1.30664062 C4.64207146 1.20061335 2.32114675 1.09854971 0 1 C0 0.67 0 0.34 0 0 Z " fill="#154A33" transform="translate(220,752)"/>
<path d="M0 0 C24.42 0 48.84 0 74 0 C74 0.33 74 0.66 74 1 C65.05706585 1.94154802 56.10913947 2.39601099 47.125 2.6875 C46.39420227 2.71190155 45.66340454 2.7363031 44.91046143 2.76144409 C29.83561164 3.2331855 15.01626826 2.4111216 0 1 C0 0.67 0 0.34 0 0 Z " fill="#073320" transform="translate(569,771)"/>
<path d="M0 0 C4.88947235 0.71386296 9.21644652 2.56062415 13.75 4.4375 C14.52988281 4.75009766 15.30976563 5.06269531 16.11328125 5.38476562 C16.85449219 5.68962891 17.59570312 5.99449219 18.359375 6.30859375 C19.03452148 6.58501709 19.70966797 6.86144043 20.40527344 7.14624023 C22 8 22 8 23 10 C14.31038161 9.08586935 5.66286483 8.06000621 -2.9375 6.5 C-3.61683594 6.38164795 -4.29617188 6.2632959 -4.99609375 6.14135742 C-9.75825722 5.24174278 -9.75825722 5.24174278 -12 3 C-11.08476562 3.08378906 -10.16953125 3.16757812 -9.2265625 3.25390625 C-8.03804688 3.35574219 -6.84953125 3.45757813 -5.625 3.5625 C-4.44164062 3.66691406 -3.25828125 3.77132812 -2.0390625 3.87890625 C0.91898631 4.24153596 0.91898631 4.24153596 3 3 C2.01 2.01 1.02 1.02 0 0 Z " fill="#09442F" transform="translate(448,703)"/>
<path d="M0 0 C0.8250856 -0.00307663 1.6501712 -0.00615326 2.5002594 -0.00932312 C3.82838905 0.00145515 3.82838905 0.00145515 5.18334961 0.01245117 C6.56737221 0.0131385 6.56737221 0.0131385 7.97935486 0.01383972 C9.93367802 0.01685945 11.88799883 0.02473742 13.84228516 0.03710938 C16.80046349 0.05520442 19.75832517 0.05761996 22.71655273 0.05737305 C40.90815104 0.09259563 40.90815104 0.09259563 49.77319336 1.24291992 C49.77319336 1.57291992 49.77319336 1.90291992 49.77319336 2.24291992 C30.42703239 3.73461679 11.13715394 2.92352139 -8.22680664 2.24291992 C-5.35131255 0.61151261 -3.2988246 -0.00651246 0 0 Z " fill="#0B3F2A" transform="translate(345.226806640625,748.757080078125)"/>
<path d="M0 0 C14.69609688 0.66561583 29.34132563 1.7666247 44 3 C44 3.33 44 3.66 44 4 C40.08334973 4.02953391 36.16672887 4.04697503 32.25 4.0625 C31.15816406 4.07087891 30.06632812 4.07925781 28.94140625 4.08789062 C9.22888761 4.14621169 9.22888761 4.14621169 0 1 C0 0.67 0 0.34 0 0 Z " fill="#0E432D" transform="translate(172,748)"/>
<path d="M0 0 C0.33 0 0.66 0 1 0 C1.50744668 10.05496209 0.486424 17.13766788 -6 25 C-7.46573469 27.94647691 -8.75293197 30.95529668 -10 34 C-10.33 34 -10.66 34 -11 34 C-10.70942826 27.31684998 -7.79299918 20.79299918 -3 16 C-2.835 14.845 -2.67 13.69 -2.5 12.5 C-2 9 -2 9 -1 8 C-0.76924918 6.65252916 -0.58846937 5.29622435 -0.4375 3.9375 C-0.293125 2.638125 -0.14875 1.33875 0 0 Z " fill="#124C33" transform="translate(120,561)"/>
<path d="M0 0 C3.47081906 1.49876278 5.778921 3.52183442 8.5 6.125 C13.27436556 10.53594371 18.2179043 13.9368547 23.7265625 17.37109375 C24.47679687 17.90863281 25.22703125 18.44617188 26 19 C26 19.66 26 20.32 26 21 C16.15854383 17.48393217 7.14958662 9.47527278 0 2 C0 1.34 0 0.68 0 0 Z " fill="#114730" transform="translate(536,409)"/>
<path d="M0 0 C4.29 0 8.58 0 13 0 C12.01 0.66 11.02 1.32 10 2 C15.94 2.33 21.88 2.66 28 3 C28 3.33 28 3.66 28 4 C14.95545355 4.1183055 2.01181059 3.96639442 -11 3 C-11 2.67 -11 2.34 -11 2 C-5.555 1.505 -5.555 1.505 0 1 C0 0.67 0 0.34 0 0 Z " fill="#236B4E" transform="translate(212,750)"/>
<path d="M0 0 C0.99 0.33 1.98 0.66 3 1 C3 1.66 3 2.32 3 3 C3.57524414 3.28536621 4.15048828 3.57073242 4.74316406 3.86474609 C6.87966213 4.93946656 8.99655243 6.04362629 11.109375 7.1640625 C11.86347656 7.56367187 12.61757812 7.96328125 13.39453125 8.375 C14.56048828 8.99375 14.56048828 8.99375 15.75 9.625 C16.54277344 10.04523437 17.33554688 10.46546875 18.15234375 10.8984375 C20.10178365 11.93187552 22.05099451 12.96574301 24 14 C24 14.33 24 14.66 24 15 C15.66036446 14.81046283 7.68637086 9.86945497 1.75 4.1875 C0 2 0 2 0 0 Z " fill="#144A34" transform="translate(109,724)"/>
<path d="M0 0 C5.08398207 -0.13811594 9.69994067 0.32910863 14.6875 1.3125 C16.61142578 1.67794922 16.61142578 1.67794922 18.57421875 2.05078125 C21.78974168 2.94174142 23.55633932 3.79142567 26 6 C16.77799299 5.66219755 8.77030302 3.78937152 0 1 C0 0.67 0 0.34 0 0 Z " fill="#154F37" transform="translate(777,553)"/>
<path d="M0 0 C4.48797888 2.28434896 7.25666437 5.36470256 10.25 9.3125 C10.69601562 9.86873047 11.14203125 10.42496094 11.6015625 10.99804688 C14.38311705 14.61828227 15.64193719 17.44847088 16 22 C12.9235305 18.17229958 9.88459437 14.31782271 6.875 10.4375 C6.43285156 9.87353516 5.99070312 9.30957031 5.53515625 8.72851562 C3.37037882 5.93261728 1.41503916 3.2514102 0 0 Z " fill="#124932" transform="translate(898,594)"/>
<path d="M0 0 C0.33 0.99 0.66 1.98 1 3 C1.66 3 2.32 3 3 3 C4.70137504 9.59282829 4.35911051 16.37433627 3 23 C2.34 23 1.68 23 1 23 C0.67 15.41 0.34 7.82 0 0 Z " fill="#144B34" transform="translate(929,648)"/>
<path d="M0 0 C6.27 0 12.54 0 19 0 C19 0.66 19 1.32 19 2 C8.97562315 2.72904559 -0.94389808 3.14141393 -11 3 C-11 2.67 -11 2.34 -11 2 C-7.37 2 -3.74 2 0 2 C0 1.34 0 0.68 0 0 Z " fill="#1B583F" transform="translate(643,770)"/>
<path d="M0 0 C0.33 0.66 0.66 1.32 1 2 C0.12988281 2.65355469 0.12988281 2.65355469 -0.7578125 3.3203125 C-5.52267651 6.9529316 -9.8704731 10.65870249 -14 15 C-14.99 14.67 -15.98 14.34 -17 14 C-14.92569173 11.84475774 -12.84146179 9.70098609 -10.75 7.5625 C-9.87021484 6.64500977 -9.87021484 6.64500977 -8.97265625 5.70898438 C-8.39902344 5.12568359 -7.82539063 4.54238281 -7.234375 3.94140625 C-6.71069336 3.40201416 -6.18701172 2.86262207 -5.64746094 2.30688477 C-3.78417546 0.82879242 -2.32206478 0.40834789 0 0 Z " fill="#124932" transform="translate(368,263)"/>
<path d="M0 0 C-1.32338632 0.68620031 -2.65949948 1.34786461 -4 2 C-4.66 2.3403125 -5.32 2.680625 -6 3.03125 C-10.3939267 4.45012216 -14.72083347 4.46924029 -19.3125 4.625 C-20.70952148 4.68300781 -20.70952148 4.68300781 -22.13476562 4.7421875 C-24.42298407 4.83606313 -26.71120295 4.92174509 -29 5 C-26.0842142 3.0561428 -24.87347041 2.63786483 -21.54296875 2.1484375 C-20.67736328 2.01953125 -19.81175781 1.890625 -18.91992188 1.7578125 C-18.01822266 1.63148438 -17.11652344 1.50515625 -16.1875 1.375 C-14.85235352 1.17390625 -14.85235352 1.17390625 -13.49023438 0.96875 C-8.95535068 0.30986401 -4.59622296 -0.16713538 0 0 Z " fill="#57AF90" transform="translate(763,691)"/>
<path d="M0 0 C6.64277148 -0.45291624 15.66812439 0.12310741 20.859375 4.60546875 C21.23578125 5.06566406 21.6121875 5.52585937 22 6 C14.2501365 5.47458553 7.3549914 3.44408524 0 1 C0 0.67 0 0.34 0 0 Z " fill="#134B33" transform="translate(749,546)"/>
<path d="M0 0 C11.52164009 -0.18451025 11.52164009 -0.18451025 17 1 C17 1.33 17 1.66 17 2 C14.36 2.33 11.72 2.66 9 3 C9 3.33 9 3.66 9 4 C4.05 3.67 -0.9 3.34 -6 3 C-6 2.67 -6 2.34 -6 2 C-4.02 1.67 -2.04 1.34 0 1 C0 0.67 0 0.34 0 0 Z " fill="#126044" transform="translate(412,751)"/>
<path d="M0 0 C0.66 0.66 1.32 1.32 2 2 C1.04738281 2.04898437 0.09476562 2.09796875 -0.88671875 2.1484375 C-2.14097656 2.22320312 -3.39523437 2.29796875 -4.6875 2.375 C-6.54955078 2.47941406 -6.54955078 2.47941406 -8.44921875 2.5859375 C-11.7148725 2.96675081 -13.99170415 3.78825211 -17 5 C-17.99 4.67 -18.98 4.34 -20 4 C-13.45663358 0.38095289 -7.49540384 -1.10188843 0 0 Z " fill="#51A98A" transform="translate(439,255)"/>
<path d="M0 0 C2.97 0 5.94 0 9 0 C5.74340357 3.25659643 4.29455808 3.71235312 -0.0625 4.75 C-1.65771484 5.14445313 -1.65771484 5.14445313 -3.28515625 5.546875 C-6 6 -6 6 -8 5 C-8.33 5.66 -8.66 6.32 -9 7 C-9.99 6.34 -10.98 5.68 -12 5 C-10.56445975 4.49440092 -9.1264798 3.9957251 -7.6875 3.5 C-6.88699219 3.2215625 -6.08648437 2.943125 -5.26171875 2.65625 C-3 2 -3 2 0 2 C0 1.34 0 0.68 0 0 Z " fill="#1C5B41" transform="translate(420,233)"/>
<path d="M0 0 C0.33 0 0.66 0 1 0 C0.53752467 7.19270839 -0.25077067 14.0030827 -2 21 C-2.33 21 -2.66 21 -3 21 C-3.22038826 14.91483527 -2.98420252 9.83588976 -1 4 C-0.65864073 2.66869885 -0.32074044 1.33641852 0 0 Z " fill="#0F432D" transform="translate(174,337)"/>
<path d="M0 0 C5.23272633 1.63958758 10.15196636 3.38952035 15 6 C11.52487282 7.15837573 9.86329714 6.77265943 6.3125 6.0625 C5.31863281 5.86785156 4.32476562 5.67320312 3.30078125 5.47265625 C2.16189453 5.23869141 2.16189453 5.23869141 1 5 C1.66 4.34 2.32 3.68 3 3 C2.01 2.01 1.02 1.02 0 0 Z " fill="#073724" transform="translate(456,706)"/>
<path d="M0 0 C7.52719602 -0.25515919 14.58851545 0.71702277 22 2 C22 2.33 22 2.66 22 3 C19.64551325 3.05454409 17.29232125 3.0939279 14.9375 3.125 C13.62652344 3.14820313 12.31554687 3.17140625 10.96484375 3.1953125 C6.88175701 2.99417522 3.85000947 2.27165462 0 1 C0 0.67 0 0.34 0 0 Z " fill="#0A3D27" transform="translate(509,765)"/>
<path d="M0 0 C4.39831879 0.50779879 6.57551606 1.96892269 9.8125 4.9375 C10.60269531 5.64777344 11.39289062 6.35804688 12.20703125 7.08984375 C14 9 14 9 14 11 C10.50004453 9.43810398 7.72827143 7.33666309 4.75 4.9375 C3.85796875 4.22464844 2.9659375 3.51179688 2.046875 2.77734375 C1.37140625 2.19082031 0.6959375 1.60429687 0 1 C0 0.67 0 0.34 0 0 Z " fill="#144C33" transform="translate(646,489)"/>
<path d="M0 0 C6.75 0.875 6.75 0.875 9 2 C9.33 1.34 9.66 0.68 10 0 C11.5 1.375 11.5 1.375 13 3 C13 3.66 13 4.32 13 5 C13.66 5.33 14.32 5.66 15 6 C9.55432314 4.97137215 4.88182883 3.75385216 0 1 C0 0.67 0 0.34 0 0 Z " fill="#154E36" transform="translate(727,538)"/>
<path d="M0 0 C5.06998019 0.65419099 9.41990777 2.8546409 14 5 C14 5.66 14 6.32 14 7 C12.04096255 6.52372025 10.08278903 6.04388577 8.125 5.5625 C7.03445313 5.29566406 5.94390625 5.02882813 4.8203125 4.75390625 C2 4 2 4 0 3 C0 2.01 0 1.02 0 0 Z " fill="#124D35" transform="translate(593,454)"/>
<path d="M0 0 C0.59941406 0.19851562 1.19882812 0.39703125 1.81640625 0.6015625 C-0.11530056 1.94327514 -2.05416251 3.27469133 -3.99609375 4.6015625 C-5.07503906 5.3440625 -6.15398437 6.0865625 -7.265625 6.8515625 C-10.18359375 8.6015625 -10.18359375 8.6015625 -13.18359375 8.6015625 C-4.31609629 -0.78755245 -4.31609629 -0.78755245 0 0 Z " fill="#11462F" transform="translate(386.18359375,250.3984375)"/>
<path d="M0 0 C3.45835793 0.28819649 4.78380733 0.78965038 7.3125 3.25 C9.12328851 6.2009146 9.38684492 7.61510691 9 11 C7.22038688 9.38216989 6.06598322 8.14516309 5.0625 5.9375 C3.75005225 3.54421293 2.48985633 2.99594253 0 2 C0 1.34 0 0.68 0 0 Z " fill="#114C33" transform="translate(493,321)"/>
<path d="M0 0 C0 0.33 0 0.66 0 1 C-2.22850277 1.33774332 -4.45783467 1.6700187 -6.6875 2 C-8.54955078 2.2784375 -8.54955078 2.2784375 -10.44921875 2.5625 C-13.35886371 2.92100411 -16.07700022 3.08942256 -19 3 C-17.68 2.67 -16.36 2.34 -15 2 C-15 1.34 -15 0.68 -15 0 C-9.77254141 -1.2063366 -5.23471686 -0.75612577 0 0 Z " fill="#1C5E44" transform="translate(715,765)"/>
<path d="M0 0 C0.33 0 0.66 0 1 0 C0.50569398 4.9430602 -0.36890025 8.74976194 -3 13 C-3.99 13.33 -4.98 13.66 -6 14 C-5.34 11.36 -4.68 8.72 -4 6 C-3.34 6 -2.68 6 -2 6 C-1.34 4.02 -0.68 2.04 0 0 Z " fill="#114831" transform="translate(929,672)"/>
<path d="M0 0 C3 1 3 1 4.60546875 3.65234375 C5.12753906 4.73644531 5.64960937 5.82054687 6.1875 6.9375 C6.71730469 8.01902344 7.24710938 9.10054687 7.79296875 10.21484375 C9 13 9 13 9 15 C8.34 15 7.68 15 7 15 C5.82823482 12.87767021 4.66245215 10.75242209 3.5 8.625 C3.16613281 8.02171875 2.83226562 7.4184375 2.48828125 6.796875 C0 2.2265625 0 2.2265625 0 0 Z " fill="#11452E" transform="translate(916,619)"/>
<path d="M0 0 C0.75410156 0.09990234 1.50820313 0.19980469 2.28515625 0.30273438 C4.14917753 0.55048404 6.01219288 0.80578057 7.875 1.0625 C7.875 1.3925 7.875 1.7225 7.875 2.0625 C0.615 2.0625 -6.645 2.0625 -14.125 2.0625 C-8.59851642 -0.70074179 -6.02590979 -0.8377992 0 0 Z " fill="#053723" transform="translate(439.125,232.9375)"/>
<path d="M0 0 C0 0.33 0 0.66 0 1 C-2.26860837 1.5304408 -4.53998489 2.04905434 -6.8125 2.5625 C-8.70935547 2.99755859 -8.70935547 2.99755859 -10.64453125 3.44140625 C-14 4 -14 4 -17 3 C-16.34 3 -15.68 3 -15 3 C-15 2.34 -15 1.68 -15 1 C-9.69276568 -0.42705634 -5.46108889 -1.4002792 0 0 Z " fill="#1D5C42" transform="translate(785,751)"/>
<path d="M0 0 C0.33 0 0.66 0 1 0 C1.16781295 2.60409745 1.33429651 5.2082682 1.5 7.8125 C1.54769531 8.55048828 1.59539062 9.28847656 1.64453125 10.04882812 C1.97534664 15.27098529 1.91587733 19.84819003 1 25 C0.67 25 0.34 25 0 25 C0 16.75 0 8.5 0 0 Z " fill="#286D50" transform="translate(504,336)"/>
<path d="M0 0 C2.97 0 5.94 0 9 0 C4.56280401 2.95813066 1.54588583 3.1143157 -3.6875 3.0625 C-5.45673828 3.04896484 -5.45673828 3.04896484 -7.26171875 3.03515625 C-8.16535156 3.02355469 -9.06898438 3.01195312 -10 3 C-10 2.67 -10 2.34 -10 2 C-6.7 2 -3.4 2 0 2 C0 1.34 0 0.68 0 0 Z " fill="#164F36" transform="translate(327,751)"/>
<path d="M0 0 C3.39192363 0.59283621 5.2107757 1.76743189 7.75 4.0625 C8.67039062 4.88427734 8.67039062 4.88427734 9.609375 5.72265625 C10.29773438 6.35494141 10.29773438 6.35494141 11 7 C10.67 7.99 10.34 8.98 10 10 C8.33037631 8.52417192 6.6643694 7.04425109 5 5.5625 C4.071875 4.73878906 3.14375 3.91507813 2.1875 3.06640625 C1.465625 2.38449219 0.74375 1.70257812 0 1 C0 0.67 0 0.34 0 0 Z " fill="#124932" transform="translate(886,583)"/>
<path d="M0 0 C5.44693314 -0.09688221 10.63904667 -0.12862175 16 1 C14 3 14 3 11.7578125 3.046875 C10.45457031 2.89992188 10.45457031 2.89992188 9.125 2.75 C8.26132812 2.66234375 7.39765625 2.5746875 6.5078125 2.484375 C4.01809898 2.00349575 2.194714 1.2453726 0 0 Z " fill="#165038" transform="translate(809,560)"/>
<path d="M0 0 C-0.66 0 -1.32 0 -2 0 C-2 0.66 -2 1.32 -2 2 C-3.57914015 2.53341184 -5.16354387 3.05125763 -6.75 3.5625 C-7.63171875 3.85253906 -8.5134375 4.14257812 -9.421875 4.44140625 C-12.07834316 5.01697435 -13.47031106 4.89248371 -16 4 C-13.90049414 3.13444052 -11.7952093 2.28288723 -9.6875 1.4375 C-8.51574219 0.96183594 -7.34398437 0.48617187 -6.13671875 -0.00390625 C-3 -1 -3 -1 0 0 Z " fill="#57B091" transform="translate(857,608)"/>
<path d="M0 0 C1.21065165 3.63195496 0.62784815 5.06531629 -0.4375 8.6875 C-0.86869141 10.17830078 -0.86869141 10.17830078 -1.30859375 11.69921875 C-1.53675781 12.45847656 -1.76492187 13.21773438 -2 14 C-2.33 14 -2.66 14 -3 14 C-3.32374517 8.49633208 -3.53286034 4.56327794 0 0 Z " fill="#0E422C" transform="translate(154,418)"/>
<path d="M0 0 C0.66 0.66 1.32 1.32 2 2 C1.67 2.99 1.34 3.98 1 5 C0.01 4.67 -0.98 4.34 -2 4 C-4.04640898 5.01516134 -4.04640898 5.01516134 -6.0625 6.5 C-8.16015625 7.96875 -8.16015625 7.96875 -10 9 C-10.66 8.67 -11.32 8.34 -12 8 C-8.04 5.36 -4.08 2.72 0 0 Z " fill="#5CB595" transform="translate(420,415)"/>
<path d="M0 0 C3.95646959 2.08813673 6.54814337 4.22791287 9 8 C8.67 8.99 8.34 9.98 8 11 C6.66072279 9.54712339 5.32873153 8.08752741 4 6.625 C3.2575 5.81289063 2.515 5.00078125 1.75 4.1640625 C0 2 0 2 0 0 Z " fill="#114630" transform="translate(514,384)"/>
<path d="M0 0 C0 0.66 0 1.32 0 2 C1.65 2 3.3 2 5 2 C5 2.33 5 2.66 5 3 C-1.11485027 3.09706112 -6.93303301 2.77040851 -13 2 C-13 1.67 -13 1.34 -13 1 C-11.58366664 0.83052421 -10.16691467 0.66454493 -8.75 0.5 C-7.56664062 0.36078125 -7.56664062 0.36078125 -6.359375 0.21875 C-4 0 -4 0 0 0 Z " fill="#22654A" transform="translate(545,768)"/>
<path d="M0 0 C5.28089024 -0.30466674 6.577168 -0.317124 11 3 C7.37 3.33 3.74 3.66 0 4 C0 2.68 0 1.36 0 0 Z " fill="#1A6246" transform="translate(716,761)"/>
<path d="M0 0 C0.33 0 0.66 0 1 0 C1.2396943 5.63281599 0.38529821 10.54538831 -1 16 C-1.33 16 -1.66 16 -2 16 C-2.05449838 14.27119018 -2.09301688 12.54187288 -2.125 10.8125 C-2.14820312 9.84957031 -2.17140625 8.88664063 -2.1953125 7.89453125 C-1.9913544 4.87187222 -1.26874632 2.73230015 0 0 Z " fill="#0D3D27" transform="translate(126,519)"/>
<path d="M0 0 C4.23429756 1.31061591 8.07407404 2.94356259 12 5 C12 5.33 12 5.66 12 6 C4 5.07692308 4 5.07692308 1 3 C0.67 2.01 0.34 1.02 0 0 Z " fill="#0F422D" transform="translate(121,733)"/>
<path d="M0 0 C0.66 0.33 1.32 0.66 2 1 C-0.27771895 3.80844958 -1.36197888 4.91735478 -5.015625 5.390625 C-6.61664062 5.32101562 -6.61664062 5.32101562 -8.25 5.25 C-9.32765625 5.21390625 -10.4053125 5.1778125 -11.515625 5.140625 C-12.33546875 5.09421875 -13.1553125 5.0478125 -14 5 C-14 4.67 -14 4.34 -14 4 C-13.32453125 3.87882813 -12.6490625 3.75765625 -11.953125 3.6328125 C-10.61507812 3.38144531 -10.61507812 3.38144531 -9.25 3.125 C-8.36828125 2.96257813 -7.4865625 2.80015625 -6.578125 2.6328125 C-3.99249343 2.10389584 -3.99249343 2.10389584 -1.796875 0.8671875 C-0.90742187 0.43792969 -0.90742187 0.43792969 0 0 Z " fill="#58B192" transform="translate(603,533)"/>
<path d="M0 0 C4.69023454 0.56606279 9.34500026 1.18537505 14 2 C14 2.33 14 2.66 14 3 C9.34462607 3.83796731 5.62921525 4.0161692 1 3 C0.67 2.01 0.34 1.02 0 0 Z " fill="#216147" transform="translate(800,557)"/>
<path d="M0 0 C3.94876098 0.56410871 6.75634176 1.65735794 10 4 C10.33 4.99 10.66 5.98 11 7 C6.89188572 5.55007731 3.53144334 3.54592427 0 1 C0 0.67 0 0.34 0 0 Z " fill="#10432E" transform="translate(697,522)"/>
<path d="M0 0 C4.87362847 0.45336079 7.39042389 1.7089159 11 5 C10.67 5.66 10.34 6.32 10 7 C8.33073546 6.02526874 6.66464358 5.04510211 5 4.0625 C4.071875 3.51722656 3.14375 2.97195312 2.1875 2.41015625 C1.465625 1.94480469 0.74375 1.47945312 0 1 C0 0.67 0 0.34 0 0 Z " fill="#0F432D" transform="translate(452,236)"/>
<path d="M0 0 C-0.99 0.33 -1.98 0.66 -3 1 C-3 1.66 -3 2.32 -3 3 C-6.63 3 -10.26 3 -14 3 C-9.12521582 0.56260791 -5.41092828 -0.15459795 0 0 Z " fill="#0F412C" transform="translate(747,758)"/>
<path d="M0 0 C2.3125 -0.1875 2.3125 -0.1875 5 0 C5.99 0.99 6.98 1.98 8 3 C4.37 3.66 0.74 4.32 -3 5 C-2.34 4.67 -1.68 4.34 -1 4 C-0.34786708 1.97536745 -0.34786708 1.97536745 0 0 Z " fill="#1B5F45" transform="translate(800,743)"/>
<path d="M0 0 C1.21236328 0.04060547 1.21236328 0.04060547 2.44921875 0.08203125 C3.06410156 0.11683594 3.67898438 0.15164063 4.3125 0.1875 C2.60421079 2.29383718 1.79101584 3.12551608 -0.94921875 3.48046875 C-1.74972656 3.44566406 -2.55023438 3.41085937 -3.375 3.375 C-4.58736328 3.33439453 -4.58736328 3.33439453 -5.82421875 3.29296875 C-6.74654297 3.24076172 -6.74654297 3.24076172 -7.6875 3.1875 C-5.26849268 0.20484049 -3.789448 -0.16475861 0 0 Z " fill="#0E442D" transform="translate(274.6875,310.8125)"/>
<path d="M0 0 C3 2 3 2 4 5 C4.03954234 7.33299825 4.04401732 9.66708189 4 12 C1.57869669 9.57869669 1.47159496 8.19888623 0.875 4.875 C0.70742188 3.96492188 0.53984375 3.05484375 0.3671875 2.1171875 C0.24601562 1.41851562 0.12484375 0.71984375 0 0 Z " fill="#0D412B" transform="translate(485,299)"/>
<path d="M0 0 C0 0.99 0 1.98 0 3 C-2.97 3 -5.94 3 -9 3 C-9 2.34 -9 1.68 -9 1 C-5.92677456 0.08941469 -3.19902639 -0.08886184 0 0 Z " fill="#18523A" transform="translate(203,302)"/>
<path d="M0 0 C0.66 0.33 1.32 0.66 2 1 C-1.42388092 4.82669043 -4.00724943 6.72278474 -9 8 C-6.14723863 5.06799526 -3.34920216 2.35684596 0 0 Z " fill="#063B27" transform="translate(463,622)"/>
<path d="M0 0 C5.28089024 -0.30466674 6.577168 -0.317124 11 3 C7.04 2.67 3.08 2.34 -1 2 C-0.67 1.34 -0.34 0.68 0 0 Z " fill="#11452F" transform="translate(792,556)"/>
<path d="M0 0 C0.33 0 0.66 0 1 0 C1.33 4.29 1.66 8.58 2 13 C1.01 13.66 0.02 14.32 -1 15 C-0.67 10.05 -0.34 5.1 0 0 Z " fill="#256D50" transform="translate(121,543)"/>
<path d="M0 0 C4.28806873 0.47645208 6.26647487 1.65902484 9 5 C9 5.66 9 6.32 9 7 C5.18315774 5.44499019 2.80804268 2.96404505 0 0 Z " fill="#11462E" transform="translate(574,440)"/>
<path d="M0 0 C2 3 2 3 2.5 6.625 C2.665 7.73875 2.83 8.8525 3 10 C3.66 10.33 4.32 10.66 5 11 C3.02 11.99 3.02 11.99 1 13 C0.67 8.71 0.34 4.42 0 0 Z " fill="#57B091" transform="translate(453,353)"/>
<path d="M0 0 C0 3.9519815 -1.37176172 5.14648416 -4 8 C-4.99 8.33 -5.98 8.66 -7 9 C-6.82374165 6.62051228 -6.30280227 5.29774151 -4.59765625 3.62109375 C-3.09350908 2.37884514 -1.54870149 1.18623944 0 0 Z " fill="#114932" transform="translate(350,280)"/>
<path d="M0 0 C0.66 0.33 1.32 0.66 2 1 C4.09821215 0.60061233 4.09821215 0.60061233 6 0 C3.6875 2.5 3.6875 2.5 1 5 C0.01 5 -0.98 5 -2 5 C-2 2 -2 2 0 0 Z " fill="#166146" transform="translate(373,257)"/>
<path d="M0 0 C1.41750563 0.11509661 2.83401169 0.24253658 4.25 0.375 C5.03890625 0.44460938 5.8278125 0.51421875 6.640625 0.5859375 C9.085877 1.01507113 10.84836903 1.78600638 13 3 C11.39667209 3.08121924 9.79215974 3.13929134 8.1875 3.1875 C7.29417969 3.22230469 6.40085938 3.25710938 5.48046875 3.29296875 C2.58352485 2.95081002 1.77444972 2.24606427 0 0 Z " fill="#0F402C" transform="translate(145,743)"/>
<path d="M0 0 C-0.66 0 -1.32 0 -2 0 C-2 0.66 -2 1.32 -2 2 C-4.97 2.66 -7.94 3.32 -11 4 C-7.41252042 0.41252042 -5.01650331 -1.67216777 0 0 Z " fill="#55AD8F" transform="translate(869,603)"/>
<path d="M0 0 C-0.99 0.495 -0.99 0.495 -2 1 C-2 1.66 -2 2.32 -2 3 C-6.29 2.67 -10.58 2.34 -15 2 C-15 1.67 -15 1.34 -15 1 C-13.43784452 0.83013455 -11.8752548 0.66426036 -10.3125 0.5 C-9.44238281 0.4071875 -8.57226562 0.314375 -7.67578125 0.21875 C-5.10276661 0.00840136 -2.58015636 -0.03719144 0 0 Z " fill="#1F6548" transform="translate(258,314)"/>
<path d="M0 0 C0.66 0 1.32 0 2 0 C1.38461538 5.53846154 1.38461538 5.53846154 -0.5625 7.875 C-1.036875 8.24625 -1.51125 8.6175 -2 9 C-1.125 2.25 -1.125 2.25 0 0 Z " fill="#0E402B" transform="translate(111,586)"/>
<path d="M0 0 C-0.33 0.99 -0.66 1.98 -1 3 C-6.75 1.25 -6.75 1.25 -9 -1 C-5.38055101 -2.34053666 -3.42632833 -1.61798838 0 0 Z " fill="#186248" transform="translate(720,533)"/>
<path d="M0 0 C2.45823172 3.68734758 3.01242616 6.69699971 4 11 C3.01 10.67 2.02 10.34 1 10 C-0.1577506 6.52674819 -0.06866652 3.63932552 0 0 Z " fill="#1C583F" transform="translate(472,255)"/>
<path d="M0 0 C0 0.66 0 1.32 0 2 C-2.64 2.33 -5.28 2.66 -8 3 C-8.33 2.34 -8.66 1.68 -9 1 C-5.8035914 -0.06546953 -3.34252724 -0.07427838 0 0 Z " fill="#154B34" transform="translate(762,755)"/>
<path d="M0 0 C0 0.33 0 0.66 0 1 C-4.95 0.67 -9.9 0.34 -15 0 C-15 -0.33 -15 -0.66 -15 -1 C-4.44191344 -2.51708428 -4.44191344 -2.51708428 0 0 Z " fill="#2A7155" transform="translate(421,754)"/>
<path d="M0 0 C1.32 0 2.64 0 4 0 C5.8125 1.8125 5.8125 1.8125 7 4 C6.67 4.99 6.34 5.98 6 7 C4.02 4.69 2.04 2.38 0 0 Z " fill="#1B5A40" transform="translate(102,719)"/>
<path d="M0 0 C0.33 0.66 0.66 1.32 1 2 C1.66 2 2.32 2 3 2 C3.625 4.3125 3.625 4.3125 4 7 C3.01 8.485 3.01 8.485 2 10 C0.68373308 6.38026598 0 3.90432869 0 0 Z " fill="#1A5A40" transform="translate(89,690)"/>
<path d="M0 0 C2 1.625 2 1.625 4 4 C4.25 7.25 4.25 7.25 4 10 C1.7448078 7.7448078 1.02276532 5.9952413 0 3 C0 2.01 0 1.02 0 0 Z " fill="#0C412A" transform="translate(925,637)"/>
<path d="M0 0 C3.65316671 1.24976756 4.78065836 1.67098753 7 5 C4.69 4.67 2.38 4.34 0 4 C0 2.66666667 0 1.33333333 0 0 Z " fill="#195D41" transform="translate(881,578)"/>
<path d="M0 0 C1.98 0.66 3.96 1.32 6 2 C5.01 2.495 5.01 2.495 4 3 C4 3.66 4 4.32 4 5 C2.02 4.34 0.04 3.68 -2 3 C-1.34 2.01 -0.68 1.02 0 0 Z " fill="#1A6046" transform="translate(723,535)"/>
<path d="M0 0 C0.66 0.33 1.32 0.66 2 1 C0.35 3.64 -1.3 6.28 -3 9 C-3.33 7.68 -3.66 6.36 -4 5 C-2.0625 2.25 -2.0625 2.25 0 0 Z " fill="#0F412C" transform="translate(183,311)"/>
<path d="M0 0 C0 0.66 0 1.32 0 2 C-4.01804691 2.84098656 -7.01803543 3.05404945 -11 2 C-11 1.67 -11 1.34 -11 1 C-3.375 -1.125 -3.375 -1.125 0 0 Z " fill="#1D5F43" transform="translate(285,309)"/>
<path d="M0 0 C-3.08888522 2.05925681 -3.70935927 2.2390374 -7.1875 2.125 C-9.0746875 2.063125 -9.0746875 2.063125 -11 2 C-6.98764085 -0.6749061 -4.6342454 -1.48957888 0 0 Z " fill="#0E402B" transform="translate(815,743)"/>
<path d="M0 0 C5.75 0.875 5.75 0.875 8 2 C8 2.66 8 3.32 8 4 C4.31245243 3.50168276 2.39509338 2.89932357 0 0 Z " fill="#114630" transform="translate(636,484)"/>
<path d="M0 0 C2.86724686 0.57344937 3.8614515 0.8614515 6 3 C3.69 3.33 1.38 3.66 -1 4 C-1.33 3.34 -1.66 2.68 -2 2 C-1.34 2 -0.68 2 0 2 C0 1.34 0 0.68 0 0 Z " fill="#175B41" transform="translate(790,746)"/>
<path d="M0 0 C-3.6441774 2.4294516 -5.71241272 2.16179575 -10 2 C-6.80505194 -1.19494806 -4.22040044 -1.35655728 0 0 Z " fill="#0E402B" transform="translate(846,735)"/>
<path d="M0 0 C4.42857143 5.14285714 4.42857143 5.14285714 5 9 C2 8 2 8 0.8125 6.1875 C0 4 0 4 0 0 Z " fill="#0E4029" transform="translate(94,703)"/>
<path d="M0 0 C2.31 1.65 4.62 3.3 7 5 C5.68 5.33 4.36 5.66 3 6 C1.25 4.75 1.25 4.75 0 3 C0 2.01 0 1.02 0 0 Z " fill="#18523B" transform="translate(562,428)"/>
<path d="M0 0 C2.46800047 1.15173355 4.04783565 2.04783565 6 4 C5.67 4.99 5.34 5.98 5 7 C3.29115995 5.37660195 1.62553283 3.70680947 0 2 C0 1.34 0 0.68 0 0 Z " fill="#134731" transform="translate(524,396)"/>
<path d="M0 0 C0.33 0 0.66 0 1 0 C1.98248524 4.0527516 2.08159574 7.83861737 2 12 C0.4375 10.5 0.4375 10.5 -1 8 C-0.96823234 5.22562457 -0.50364148 2.74713533 0 0 Z " fill="#1C6549" transform="translate(163,391)"/>
<path d="M0 0 C0.99 0.33 1.98 0.66 3 1 C2.67 1.66 2.34 2.32 2 3 C1.34 2.67 0.68 2.34 0 2 C0 1.34 0 0.68 0 0 Z " fill="#20694E" transform="translate(434,757)"/>
<path d="M0 0 C1.485 0.99 1.485 0.99 3 2 C2.01 2 1.02 2 0 2 C0 1.34 0 0.68 0 0 Z " fill="#216950" transform="translate(129,740)"/>
<path d="M0 0 C1 4 1 4 1 4 Z " fill="#237154" transform="translate(104,605)"/>
<path d="M0 0 C3 1 3 1 3 1 Z " fill="#20684D" transform="translate(481,764)"/>
<path d="" fill="#226A4F" transform="translate(0,0)"/>
<path d="M0 0 C3 1 3 1 3 1 Z " fill="#257155" transform="translate(785,552)"/>
<path d="M0 0 C3 1 3 1 3 1 Z " fill="#236F52" transform="translate(256,312)"/>
<path d="M0 0 C2 1 2 1 2 1 Z " fill="#216A4F" transform="translate(601,775)"/>
<path d="M0 0 C2 1 2 1 2 1 Z " fill="#206A50" transform="translate(574,774)"/>
<path d="M0 0 C2 1 2 1 2 1 Z " fill="#20684E" transform="translate(678,771)"/>
<path d="M0 0 C2 1 2 1 2 1 Z " fill="#226C50" transform="translate(755,759)"/>
<path d="M0 0 C2 1 2 1 2 1 Z " fill="#216A4E" transform="translate(225,755)"/>
<path d="" fill="#237155" transform="translate(0,0)"/>
<path d="M0 0 C2 1 2 1 2 1 Z " fill="#236F53" transform="translate(112,580)"/>
<path d="M0 0 C2 1 2 1 2 1 Z " fill="#256C50" transform="translate(873,571)"/>
<path d="M0 0 C2 1 2 1 2 1 Z " fill="#236C4F" transform="translate(867,569)"/>
<path d="M0 0 C2 1 2 1 2 1 Z " fill="#247154" transform="translate(834,561)"/>
<path d="M0 0 C2 1 2 1 2 1 Z " fill="#257156" transform="translate(796,554)"/>
<path d="M0 0 C2 1 2 1 2 1 Z " fill="#246E52" transform="translate(729,536)"/>
<path d="" fill="#257456" transform="translate(0,0)"/>
<path d="M0 0 C2 1 2 1 2 1 Z " fill="#236A4D" transform="translate(685,512)"/>
<path d="" fill="#237053" transform="translate(0,0)"/>
<path d="M0 0 C2 1 2 1 2 1 Z " fill="#236D52" transform="translate(603,456)"/>
<path d="" fill="#236D4E" transform="translate(0,0)"/>
<path d="" fill="#236D52" transform="translate(0,0)"/>
<path d="" fill="#267156" transform="translate(0,0)"/>
<path d="M0 0 C2 1 2 1 2 1 Z " fill="#246C51" transform="translate(213,304)"/>
<path d="M0 0 C2 1 2 1 2 1 Z " fill="#256E53" transform="translate(352,272)"/>
<path d="" fill="#246C51" transform="translate(0,0)"/>
<path d="" fill="#284839" transform="translate(0,0)"/>
<path d="" fill="#21684D" transform="translate(0,0)"/>
<path d="" fill="#22694E" transform="translate(0,0)"/>
<path d="" fill="#20694D" transform="translate(0,0)"/>
<path d="" fill="#206B4F" transform="translate(0,0)"/>
<path d="" fill="#226C4F" transform="translate(0,0)"/>
<path d="" fill="#1F674C" transform="translate(0,0)"/>
<path d="" fill="#256A50" transform="translate(0,0)"/>
<path d="" fill="#216D52" transform="translate(0,0)"/>
<path d="" fill="#216C50" transform="translate(0,0)"/>
<path d="" fill="#1F674D" transform="translate(0,0)"/>
<path d="" fill="#216B4F" transform="translate(0,0)"/>
<path d="" fill="#21694F" transform="translate(0,0)"/>
<path d="" fill="#1E6B4D" transform="translate(0,0)"/>
<path d="" fill="#236A4E" transform="translate(0,0)"/>
<path d="" fill="#226950" transform="translate(0,0)"/>
<path d="" fill="#1F6950" transform="translate(0,0)"/>
<path d="" fill="#206A4C" transform="translate(0,0)"/>
<path d="" fill="#1E664D" transform="translate(0,0)"/>
<path d="" fill="#236C51" transform="translate(0,0)"/>
<path d="" fill="#21694F" transform="translate(0,0)"/>
<path d="" fill="#246E52" transform="translate(0,0)"/>
<path d="" fill="#1C654A" transform="translate(0,0)"/>
<path d="" fill="#216A4F" transform="translate(0,0)"/>
<path d="" fill="#236A4E" transform="translate(0,0)"/>
<path d="" fill="#24684F" transform="translate(0,0)"/>
<path d="" fill="#1F694E" transform="translate(0,0)"/>
<path d="" fill="#206A4E" transform="translate(0,0)"/>
<path d="" fill="#1F6A4D" transform="translate(0,0)"/>
<path d="" fill="#206B4F" transform="translate(0,0)"/>
<path d="" fill="#23684E" transform="translate(0,0)"/>
<path d="" fill="#22674D" transform="translate(0,0)"/>
<path d="" fill="#23684F" transform="translate(0,0)"/>
<path d="" fill="#236A4F" transform="translate(0,0)"/>
<path d="" fill="#24684F" transform="translate(0,0)"/>
<path d="" fill="#256D52" transform="translate(0,0)"/>
<path d="" fill="#22684E" transform="translate(0,0)"/>
<path d="" fill="#23694D" transform="translate(0,0)"/>
<path d="" fill="#21694E" transform="translate(0,0)"/>
<path d="" fill="#22694E" transform="translate(0,0)"/>
<path d="" fill="#236B4E" transform="translate(0,0)"/>
<path d="" fill="#20694F" transform="translate(0,0)"/>
<path d="" fill="#226C50" transform="translate(0,0)"/>
<path d="" fill="#226B50" transform="translate(0,0)"/>
<path d="" fill="#216B52" transform="translate(0,0)"/>
<path d="" fill="#226C50" transform="translate(0,0)"/>
<path d="" fill="#246B51" transform="translate(0,0)"/>
<path d="" fill="#21694F" transform="translate(0,0)"/>
<path d="" fill="#246E52" transform="translate(0,0)"/>
<path d="" fill="#226B50" transform="translate(0,0)"/>
<path d="" fill="#216B4F" transform="translate(0,0)"/>
<path d="" fill="#246D4F" transform="translate(0,0)"/>
<path d="" fill="#236A50" transform="translate(0,0)"/>
<path d="" fill="#246E52" transform="translate(0,0)"/>
<path d="" fill="#236E50" transform="translate(0,0)"/>
<path d="" fill="#226D51" transform="translate(0,0)"/>
<path d="" fill="#237053" transform="translate(0,0)"/>
<path d="" fill="#206D53" transform="translate(0,0)"/>
<path d="" fill="#226F52" transform="translate(0,0)"/>
<path d="" fill="#276D51" transform="translate(0,0)"/>
<path d="" fill="#20674C" transform="translate(0,0)"/>
<path d="" fill="#247154" transform="translate(0,0)"/>
<path d="" fill="#246E52" transform="translate(0,0)"/>
<path d="" fill="#226F53" transform="translate(0,0)"/>
<path d="" fill="#236C51" transform="translate(0,0)"/>
<path d="" fill="#206D4E" transform="translate(0,0)"/>
<path d="" fill="#267156" transform="translate(0,0)"/>
<path d="" fill="#216B4E" transform="translate(0,0)"/>
<path d="" fill="#257355" transform="translate(0,0)"/>
<path d="" fill="#216D52" transform="translate(0,0)"/>
<path d="" fill="#257254" transform="translate(0,0)"/>
<path d="" fill="#226C4E" transform="translate(0,0)"/>
<path d="" fill="#206B50" transform="translate(0,0)"/>
<path d="" fill="#216A4E" transform="translate(0,0)"/>
<path d="" fill="#22684B" transform="translate(0,0)"/>
<path d="" fill="#256C51" transform="translate(0,0)"/>
<path d="" fill="#246F52" transform="translate(0,0)"/>
<path d="" fill="#247154" transform="translate(0,0)"/>
<path d="" fill="#236F54" transform="translate(0,0)"/>
<path d="" fill="#256D52" transform="translate(0,0)"/>
<path d="" fill="#267257" transform="translate(0,0)"/>
<path d="" fill="#227153" transform="translate(0,0)"/>
<path d="" fill="#287155" transform="translate(0,0)"/>
<path d="" fill="#277354" transform="translate(0,0)"/>
<path d="" fill="#257255" transform="translate(0,0)"/>
<path d="" fill="#277256" transform="translate(0,0)"/>
<path d="" fill="#277155" transform="translate(0,0)"/>
<path d="" fill="#267458" transform="translate(0,0)"/>
<path d="" fill="#247153" transform="translate(0,0)"/>
<path d="" fill="#267257" transform="translate(0,0)"/>
<path d="" fill="#246F52" transform="translate(0,0)"/>
<path d="" fill="#236A4F" transform="translate(0,0)"/>
<path d="" fill="#236E53" transform="translate(0,0)"/>
<path d="" fill="#266E54" transform="translate(0,0)"/>
<path d="" fill="#246E54" transform="translate(0,0)"/>
<path d="" fill="#237153" transform="translate(0,0)"/>
<path d="" fill="#247253" transform="translate(0,0)"/>
<path d="" fill="#267556" transform="translate(0,0)"/>
<path d="" fill="#277356" transform="translate(0,0)"/>
<path d="" fill="#257256" transform="translate(0,0)"/>
<path d="" fill="#257053" transform="translate(0,0)"/>
<path d="" fill="#237155" transform="translate(0,0)"/>
<path d="" fill="#246F52" transform="translate(0,0)"/>
<path d="" fill="#267051" transform="translate(0,0)"/>
<path d="" fill="#257057" transform="translate(0,0)"/>
<path d="" fill="#247154" transform="translate(0,0)"/>
<path d="" fill="#267054" transform="translate(0,0)"/>
<path d="" fill="#286E52" transform="translate(0,0)"/>
<path d="" fill="#276F53" transform="translate(0,0)"/>
<path d="" fill="#267053" transform="translate(0,0)"/>
<path d="" fill="#257054" transform="translate(0,0)"/>
<path d="" fill="#237153" transform="translate(0,0)"/>
<path d="" fill="#247156" transform="translate(0,0)"/>
<path d="" fill="#237052" transform="translate(0,0)"/>
<path d="" fill="#25674D" transform="translate(0,0)"/>
<path d="" fill="#286F53" transform="translate(0,0)"/>
<path d="" fill="#256D54" transform="translate(0,0)"/>
<path d="" fill="#236D52" transform="translate(0,0)"/>
<path d="" fill="#286F54" transform="translate(0,0)"/>
<path d="" fill="#246D51" transform="translate(0,0)"/>
<path d="" fill="#236E51" transform="translate(0,0)"/>
<path d="" fill="#227056" transform="translate(0,0)"/>
<path d="" fill="#277456" transform="translate(0,0)"/>
<path d="" fill="#267356" transform="translate(0,0)"/>
<path d="" fill="#256F51" transform="translate(0,0)"/>
<path d="" fill="#267154" transform="translate(0,0)"/>
<path d="" fill="#277052" transform="translate(0,0)"/>
<path d="" fill="#305749" transform="translate(0,0)"/>
<path d="" fill="#256D53" transform="translate(0,0)"/>
<path d="" fill="#206C51" transform="translate(0,0)"/>
<path d="" fill="#305145" transform="translate(0,0)"/>
<path d="" fill="#216A4E" transform="translate(0,0)"/>
<path d="" fill="#256D51" transform="translate(0,0)"/>
<path d="" fill="#236E53" transform="translate(0,0)"/>
<path d="" fill="#287357" transform="translate(0,0)"/>
<path d="" fill="#267153" transform="translate(0,0)"/>
<path d="" fill="#246E52" transform="translate(0,0)"/>
<path d="" fill="#266D51" transform="translate(0,0)"/>
<path d="" fill="#246E53" transform="translate(0,0)"/>
<path d="" fill="#246E54" transform="translate(0,0)"/>
<path d="" fill="#236F52" transform="translate(0,0)"/>
<path d="" fill="#226E50" transform="translate(0,0)"/>
<path d="" fill="#236D51" transform="translate(0,0)"/>
<path d="" fill="#217457" transform="translate(0,0)"/>
<path d="" fill="#226F54" transform="translate(0,0)"/>
<path d="" fill="#246F53" transform="translate(0,0)"/>
<path d="" fill="#256C51" transform="translate(0,0)"/>
<path d="" fill="#267055" transform="translate(0,0)"/>
<path d="" fill="#257153" transform="translate(0,0)"/>
<path d="" fill="#237053" transform="translate(0,0)"/>
<path d="" fill="#247155" transform="translate(0,0)"/>
<path d="" fill="#246F51" transform="translate(0,0)"/>
<path d="" fill="#267154" transform="translate(0,0)"/>
<path d="" fill="#267355" transform="translate(0,0)"/>
<path d="" fill="#287255" transform="translate(0,0)"/>
<path d="" fill="#267154" transform="translate(0,0)"/>
<path d="" fill="#267055" transform="translate(0,0)"/>
<path d="" fill="#266F52" transform="translate(0,0)"/>
<path d="" fill="#256D52" transform="translate(0,0)"/>
<path d="" fill="#236C53" transform="translate(0,0)"/>
<path d="" fill="#266B51" transform="translate(0,0)"/>
<path d="" fill="#246D53" transform="translate(0,0)"/>
<path d="" fill="#256F51" transform="translate(0,0)"/>
<path d="" fill="#23694F" transform="translate(0,0)"/>
<path d="" fill="#246F53" transform="translate(0,0)"/>
<path d="" fill="#246F54" transform="translate(0,0)"/>
<path d="" fill="#256E53" transform="translate(0,0)"/>
<path d="" fill="#236E54" transform="translate(0,0)"/>
<path d="" fill="#216B50" transform="translate(0,0)"/>
<path d="" fill="#237155" transform="translate(0,0)"/>
<path d="" fill="#236F53" transform="translate(0,0)"/>
<path d="" fill="#355248" transform="translate(0,0)"/>
</svg>
